HIERARCHY
ROOT hip
{
  OFFSET 0 0 0
  CHANNELS 6 Xposition Yposition Zposition Zrotation Yrotation Xrotation
  JOINT abdomen
  {
    OFFSET 0 20.6881 -0.73152
    CHANNELS 3 Zrotation Xrotation Yrotation
    JOINT chest
    {
      OFFSET 0 11.7043 -0.48768
      CHANNELS 3 Zrotation Xrotation Yrotation
      JOINT neck
      {
        OFFSET 0 22.1894 -2.19456
        CHANNELS 3 Zrotation Xrotation Yrotation
        JOINT head
        {
          OFFSET -0.24384 7.07133 1.2192
          CHANNELS 3 Zrotation Xrotation Yrotation
          JOINT leftEye
          {
            OFFSET 4.14528 8.04674 8.04672
            CHANNELS 3 Zrotation Xrotation Yrotation
            End Site
            {
              OFFSET 1 0 0
            }
          }
          JOINT rightEye
          {
            OFFSET -3.6576 8.04674 8.04672
            CHANNELS 3 Zrotation Xrotation Yrotation
            End Site
            {
              OFFSET 1 0 0
            }
          }
        }
      }
      JOINT rCollar
      {
        OFFSET -2.68224 19.2634 -4.8768
        CHANNELS 3 Zrotation Xrotation Yrotation
        JOINT rShldr
        {
          OFFSET -8.77824 -1.95073 1.46304
          CHANNELS 3 Zrotation Xrotation Yrotation
          JOINT rForeArm
          {
            OFFSET -28.1742 -1.7115 0.48768
            CHANNELS 3 Zrotation Xrotation Yrotation
            JOINT rHand
            {
              OFFSET -22.5879 0.773209 7.07136
              CHANNELS 3 Zrotation Xrotation Yrotation
              JOINT rThumb1
              {
                OFFSET -1.2192 -0.487915 3.41376
                CHANNELS 3 Zrotation Xrotation Yrotation
                JOINT rThumb2
                {
                  OFFSET -3.37035 -0.52449 3.41376
                  CHANNELS 3 Zrotation Xrotation Yrotation
                  End Site
                  {
                    OFFSET -1.78271 -1.18214 1.43049
                  }
                }
              }
              JOINT rIndex1
              {
                OFFSET -7.75947 0.938293 5.60832
                CHANNELS 3 Zrotation Xrotation Yrotation
                JOINT rIndex2
                {
                  OFFSET -2.54057 -0.884171 1.56538
                  CHANNELS 3 Zrotation Xrotation Yrotation
                  End Site
                  {
                    OFFSET -1.62519 -0.234802 1.16502
                  }
                }
              }
              JOINT rMid1
              {
                OFFSET -8.24714 1.18213 3.41376
                CHANNELS 3 Zrotation Xrotation Yrotation
                JOINT rMid2
                {
                  OFFSET -3.10165 -0.590103 1.0647
                  CHANNELS 3 Zrotation Xrotation Yrotation
                  End Site
                  {
                    OFFSET -2.48547 -0.328903 0.83742
                  }
                }
              }
              JOINT rRing1
              {
                OFFSET -8.82822 0.546677 1.51678
                CHANNELS 3 Zrotation Xrotation Yrotation
                JOINT rRing2
                {
                  OFFSET -2.60934 -0.819778 -0.0198488
                  CHANNELS 3 Zrotation Xrotation Yrotation
                  End Site
                  {
                    OFFSET -2.33842 -0.294052 0.168128
                  }
                }
              }
              JOINT rPinky1
              {
                OFFSET -8.27202 -0.0477905 -0.4584
                CHANNELS 3 Zrotation Xrotation Yrotation
                JOINT rPinky2
                {
                  OFFSET -1.82734 -0.647385 -0.700984
                  CHANNELS 3 Zrotation Xrotation Yrotation
                  End Site
                  {
                    OFFSET -1.69225 -0.51767 -0.607171
                  }
                }
              }
            }
          }
        }
      }
      JOINT lCollar
      {
        OFFSET 2.68224 19.2634 -4.8768
        CHANNELS 3 Zrotation Xrotation Yrotation
        JOINT lShldr
        {
          OFFSET 8.77824 -1.95073 1.46304
          CHANNELS 3 Zrotation Xrotation Yrotation
          JOINT lForeArm
          {
            OFFSET 28.1742 -1.7115 0.48768
            CHANNELS 3 Zrotation Xrotation Yrotation
            JOINT lHand
            {
              OFFSET 22.5879 0.773209 7.07136
              CHANNELS 3 Zrotation Xrotation Yrotation
              JOINT lThumb1
              {
                OFFSET 1.2192 -0.487915 3.41376
                CHANNELS 3 Zrotation Xrotation Yrotation
                JOINT lThumb2
                {
                  OFFSET 3.37035 -0.52449 3.41376
                  CHANNELS 3 Zrotation Xrotation Yrotation
                  End Site
                  {
                    OFFSET 1.78271 -1.18214 1.43049
                  }
                }
              }
              JOINT lIndex1
              {
                OFFSET 7.75947 0.938293 5.60832
                CHANNELS 3 Zrotation Xrotation Yrotation
                JOINT lIndex2
                {
                  OFFSET 2.54057 -0.884171 1.56538
                  CHANNELS 3 Zrotation Xrotation Yrotation
                  End Site
                  {
                    OFFSET 1.62519 -0.234802 1.16502
                  }
                }
              }
              JOINT lMid1
              {
                OFFSET 8.24714 1.18213 3.41376
                CHANNELS 3 Zrotation Xrotation Yrotation
                JOINT lMid2
                {
                  OFFSET 3.10165 -0.590103 1.0647
                  CHANNELS 3 Zrotation Xrotation Yrotation
                  End Site
                  {
                    OFFSET 2.48547 -0.328903 0.83742
                  }
                }
              }
              JOINT lRing1
              {
                OFFSET 8.82822 0.546677 1.51678
                CHANNELS 3 Zrotation Xrotation Yrotation
                JOINT lRing2
                {
                  OFFSET 2.60934 -0.819778 -0.0198488
                  CHANNELS 3 Zrotation Xrotation Yrotation
                  End Site
                  {
                    OFFSET 2.33842 -0.294052 0.168128
                  }
                }
              }
              JOINT lPinky1
              {
                OFFSET 8.27202 -0.0477905 -0.4584
                CHANNELS 3 Zrotation Xrotation Yrotation
                JOINT lPinky2
                {
                  OFFSET 1.82734 -0.647385 -0.700984
                  CHANNELS 3 Zrotation Xrotation Yrotation
                  End Site
                  {
                    OFFSET 1.69225 -0.51767 -0.607171
                  }
                }
              }
            }
          }
        }
      }
    }
  }
  JOINT rButtock
  {
    OFFSET -8.77824 4.35084 1.2192
    CHANNELS 3 Zrotation Xrotation Yrotation
    JOINT rThigh
    {
      OFFSET 0 -1.70687 -2.19456
      CHANNELS 3 Zrotation Xrotation Yrotation
      JOINT rShin
      {
        OFFSET 0 -36.8199 0.73152
        CHANNELS 3 Zrotation Xrotation Yrotation
        JOINT rFoot
        {
          OFFSET 0.73152 -45.1104 -5.12064
          CHANNELS 3 Zrotation Xrotation Yrotation
          End Site
          {
            OFFSET -1.1221 -3.69964 12.103
          }
        }
      }
    }
  }
  JOINT lButtock
  {
    OFFSET 8.77824 4.35084 1.2192
    CHANNELS 3 Zrotation Xrotation Yrotation
    JOINT lThigh
    {
      OFFSET 0 -1.70687 -2.19456
      CHANNELS 3 Zrotation Xrotation Yrotation
      JOINT lShin
      {
        OFFSET 0 -36.8199 0.73152
        CHANNELS 3 Zrotation Xrotation Yrotation
        JOINT lFoot
        {
          OFFSET -0.73152 -45.1104 -5.12064
          CHANNELS 3 Zrotation Xrotation Yrotation
          End Site
          {
            OFFSET 1.1221 -3.69964 12.103
          }
        }
      }
    }
  }
}
MOTION
Frames:	8
Frame Time:	0.03333
0.0 0.0 0.0 0.0 0.0 0.0 0.0 0.0 0.0 0.0 0.0 0.0 0.0 0.0 0.0 0.0 0.0 0.0 0.0 0.0 0.0 0.0 0.0 0.0 0.0 0.0 0.0 0.0 0.0 0.0 0.0 0.0 0.0 0.0 0.0 0.0 0.0 0.0 0.0 0.0 0.0 0.0 0.0 0.0 0.0 0.0 0.0 0.0 0.0 0.0 0.0 0.0 0.0 0.0 0.0 0.0 0.0 0.0 0.0 0.0 0.0 0.0 0.0 0.0 0.0 0.0 0.0 0.0 0.0 0.0 0.0 0.0 0.0 0.0 0.0 0.0 0.0 0.0 0.0 0.0 0.0 0.0 0.0 0.0 0.0 0.0 0.0 0.0 0.0 0.0 0.0 0.0 0.0 0.0 0.0 0.0 0.0 0.0 0.0 0.0 0.0 0.0 0.0 0.0 0.0 0.0 0.0 0.0 0.0 0.0 0.0 0.0 0.0 0.0 0.0 0.0 0.0 0.0 0.0 0.0 0.0 0.0 0.0 0.0 0.0 0.0 0.0 0.0 0.0 0.0 0.0 0.0
-0.0531 54.7925 0.0669 173.666985 81.196984 174.920761 -5.290372 6.272497 -80.481634 8.811428 0.703451 76.372611 -15.920822 27.093033 -66.479528 35.872056 1.582592 20.709363 0.00123 0.0 0.002966 0.000999 -0.0 -0.000953 -22.154062 52.540927 24.344912 -104.689219 21.705336 107.808504 164.632893 33.459872 -81.469925 -19.4069 60.060784 9.987319 -176.59871 -14.212954 89.691202 -152.861404 5.383017 81.318344 -151.353371 -17.158204 121.133459 -85.836855 56.810289 67.522416 173.120492 -66.29739 137.612649 -42.5178 58.333727 36.420125 -72.757864 -72.143129 -89.772277 14.141809 25.998898 -1.129894 -145.808626 14.096266 -142.380756 3.647194 3.563117 -0.932033 142.974144 39.431714 -147.390182 -72.983228 -39.216727 -108.252655 178.209229 15.573951 -38.238239 130.084153 38.174018 -117.59793 170.567422 -8.250664 -89.947812 165.006895 -4.396293 -86.416424 162.636849 -37.46528 -122.649926 78.058905 57.19381 -62.362389 10.976183 25.789756 -7.640459 4.871031 21.33148 -4.436331 145.11897 0.185272 179.186997 -10.247576 0.376092 8.947717 117.243448 -36.645371 115.187616 147.312935 13.757586 142.665156 -0.0 0.000706 5.1e-05 -64.141606 -45.646193 0.0 68.589683 29.670137 -144.053133 163.555859 -65.373906 -75.443346 0.0 0.000267 -0.000302 28.484719 -24.752285 13.346682 -81.538813 76.578206 176.184646 -67.929954 40.281359 -46.235824
-0.0624 54.7864 0.07110000000000001 174.495663 81.132305 175.74649 -5.614045 4.426773 -128.139385 3.669287 6.223746 123.814443 -4.782724 18.734711 11.542855 -1.03326 -24.767532 -59.464287 0.000841 -0.0 -0.001479 0.000841 -0.0 -0.001479 -149.90554 22.421823 154.975376 145.55135 2.149693 171.248105 -172.027545 24.090568 55.068939 151.990256 -41.515391 136.109218 -171.603253 -9.286415 89.94922 -141.8077 8.538615 72.050176 -160.016578 -33.011577 122.698075 0.527421 22.452375 -4.270718 -0.571885 1.648328 0.321005 -88.691811 64.081724 80.427859 -71.539541 -72.13984 -88.496668 14.729652 0.855985 -4.44328 10.275143 33.656694 8.861503 9.558275 24.868535 5.722071 -4.209416 -43.443077 8.383845 123.013176 8.542347 143.018449 133.940345 -68.91167 32.513761 25.546906 -71.264662 29.458369 -71.830941 -48.264129 -25.791529 26.362734 -81.666758 66.153358 0.326454 0.530241 -0.186035 -55.023218 -48.760432 -11.91711 60.455312 59.679034 -53.004883 42.083155 58.469866 -36.338086 0.001918 -0.018329 0.006965 141.828159 -80.96767 164.272688 125.484667 -28.274119 123.237405 -3.945892 2.223197 0.982621 -179.995665 75.748748 -0.004472 142.926419 6.521456 -86.812338 -80.245179 5.489336 -75.396089 -163.001828 29.318281 -164.554217 179.983952 75.749961 0.01098 -144.109707 41.970913 -25.27218 -67.967489 65.411751 30.516541 -3.751786 -67.177688 53.994695
-0.0601 54.784600000000005 0.059500000000000004 174.523539 81.051071 175.738312 -7.507036 3.559214 -180.0 -4.568298 5.805787 176.056388 4.902288 23.903281 70.532336 -29.931146 -3.949062 -120.675997 0.000165 0.0 0.004031 -0.000554 0.0 -0.0001 -44.03975 64.187174 46.710167 72.742857 -34.155294 80.472195 -22.859033 -50.788576 67.200095 -3.470209 27.550957 2.576917 93.028571 -51.083561 40.500739 -14.344502 -71.815129 -43.178139 -50.385542 40.827149 40.024341 122.809369 -62.997222 69.791793 -82.841133 61.110069 74.532103 4.47366 -3.100144 -0.223845 -75.673404 -72.116476 -92.828822 14.035615 28.308069 -0.856503 -119.360076 -34.786005 -117.262954 -20.335043 -37.148696 -22.578228 40.032732 -86.05659 61.563887 -124.058157 35.15879 107.789829 -174.477587 -13.505242 -34.972836 122.481627 42.439911 -109.439694 178.927258 -16.453809 -89.421733 122.534535 16.923619 -59.199835 108.428262 34.160572 -91.742306 88.246325 53.754471 -65.223203 39.290708 53.365515 -32.878347 171.965853 -31.377979 -143.980158 74.840778 72.961042 -92.827958 -3.083922 46.294174 -2.804905 -1.13506 3.040779 -1.041967 94.667838 -51.960989 93.964371 -0.000153 6.5e-05 0.000197 -62.277613 -47.174726 -110.931202 -59.463049 38.755991 84.675924 107.664864 -35.664493 -12.479822 -179.999465 75.750015 -0.000366 -144.083665 41.982556 -25.298458 -98.279669 73.331805 -118.372948 160.854131 26.009745 104.42851
-0.06319999999999999 54.7841 0.056999999999999995 174.142566 80.995642 175.304072 -7.598839 8.372417 0.797799 4.529718 -10.638865 -4.389845 -16.274997 29.525137 -80.702868 37.018357 9.75098 32.668968 -0.000498 0.0 -0.000968 -0.000264 -0.0 0.00294 -143.298573 38.836752 147.73577 -17.566924 -49.337407 27.934842 17.65885 31.972054 -129.749878 161.095053 -26.513589 143.203328 -164.697605 -2.37232 89.585173 4.125598 -52.360591 13.655155 -2.686499 4.226863 1.582794 -86.72958 47.219181 67.557443 -89.834452 60.701655 81.26311 -162.813576 -3.979189 143.074116 0.005195 1.771339 0.556783 -154.324603 -65.015505 -178.25404 -144.941918 11.340404 -141.617135 10.884388 24.748904 3.781858 159.220886 -48.496205 -170.518403 90.215131 -48.531093 56.907842 167.871115 -71.932144 65.71944 19.594945 -58.817247 18.405798 -11.109907 -11.092205 0.639837 79.364371 30.696654 -68.975805 156.111468 -25.994638 -122.311467 -32.529017 -39.217491 7.908679 160.57287 -6.359863 -143.196547 88.644918 63.694893 -80.363772 70.379426 -72.130983 87.279464 -13.867124 29.738917 0.478246 -31.995521 83.321633 -6.25054 21.566418 -37.170248 21.759886 -0.005078 0.000164 -0.002539 -62.494024 -46.076313 -55.024281 26.454959 64.377046 11.089364 83.014526 -52.088323 -20.728862 -0.005078 0.000164 -0.002539 28.918285 -24.697884 -0.0 -83.498252 63.242053 169.527346 28.892438 -74.09372 -41.565858
-0.0663 54.776199999999996 0.05280000000000001 173.922439 80.982076 175.050994 -5.710343 4.532177 -128.316645 3.654331 6.308711 123.900553 -15.909979 26.442946 -63.405654 35.064274 -0.006461 18.173424 0.002697 -0.0 -0.001836 -0.002985 0.0 -0.001166 -129.706672 55.10244 133.553432 -55.647833 21.811767 39.399368 -179.76352 27.337997 -91.854443 -11.316995 47.51198 4.950952 -0.491438 0.484679 0.07833 2.401895 -2.940398 -1.62526 5.922735 -10.174231 -2.968365 -163.196697 -17.825003 110.140333 -36.0354 51.72305 29.832887 86.347851 -78.2512 57.442814 -0.001381 -0.06083 -0.019191 -155.820758 -7.866948 172.798789 17.602582 61.627938 12.86937 -161.280771 55.505501 -149.031403 78.728315 68.389683 -81.807957 -97.444466 -19.437681 -80.898935 -154.827443 -9.902154 -25.796962 91.692597 48.719185 -77.144428 -11.507731 -11.487649 0.6221 38.060248 29.13488 -28.346226 46.208641 39.653323 -36.317676 17.479073 29.998425 -8.643639 161.518593 -9.304103 -143.62618 33.726161 54.346486 -28.498235 145.118708 0.266968 179.21411 71.284405 -78.003824 92.775038 146.204589 15.405584 142.731982 138.498046 -10.960507 134.618277 -0.0 -0.001391 -0.000145 -62.562086 -46.073508 -55.102875 5.678685 73.911156 -98.676834 2.246811 21.937174 95.220068 179.997655 75.748167 0.00242 -143.421799 40.651655 -111.566173 -86.864784 -21.88708 0.668625 175.105476 -21.576129 -125.155417
-0.07429999999999999 54.7644 0.05689999999999999 173.650029 80.985633 174.76164 -7.6201 8.407388 -0.0 4.65709 -10.655973 -3.597007 -16.147419 27.28162 -68.354881 35.751616 2.834777 22.394753 0.004909 -0.0 -0.000994 -0.000773 0.0 -0.000327 -159.221089 -48.724932 170.567844 -66.907008 -44.88713 -68.884793 1.247306 -17.719351 -121.863459 152.91102 -40.336318 136.856139 -78.030686 38.689516 42.412567 -153.611032 -34.808521 82.870284 -64.086547 43.040414 52.300956 9.583887 -5.424566 -4.191063 23.903341 -61.333922 1.398448 -163.717428 -5.549848 143.31428 -145.122001 1.975079 -179.747554 11.301732 18.260356 -6.876771 8.365484 26.42728 7.361632 -159.673337 53.956285 -149.808194 155.53734 -3.733406 -161.884803 21.035202 -78.925405 -31.862375 -54.899413 -2.286196 -145.590221 31.066627 10.017317 -11.626182 95.361417 37.750987 -54.682368 -31.83982 -33.759209 -23.547812 46.207878 39.653835 -36.317492 -94.961575 -63.553263 -46.122443 36.035741 51.723122 -29.832492 -2.562306 2.471518 -0.413597 145.107185 3.677801 -179.715532 -11.638639 53.004444 2.65995 145.545201 13.244853 142.148105 11.001715 -25.315604 13.337099 -179.998695 75.751087 -0.001347 141.691589 5.282839 -180.0 -37.552103 -76.337784 -81.644704 -92.370846 -29.086178 171.677114 5.8e-05 0.00142 -7.5e-05 29.655372 -24.996727 -42.544717 -91.433395 19.227522 -150.8824 176.72012 31.988185 76.858759
-0.0896 54.737 0.0658 173.681504 80.976576 174.80904 -5.221613 6.372228 -81.438544 8.935936 0.900457 77.117683 5.755347 25.718405 82.000939 -31.757142 2.51763 -130.580733 0.002941 0.0 0.002284 -0.00297 0.0 -0.000953 -152.12896 14.113197 157.556716 146.604117 -3.356681 178.324536 123.78036 34.804092 92.331364 173.08188 6.527431 149.613214 -68.482652 37.953147 35.659853 -166.282815 -43.954699 82.867721 -162.636056 -37.465738 122.649094 10.529617 5.632297 -8.790616 -153.321651 13.629606 138.863833 -162.952156 -3.994256 142.899334 -75.944311 -72.111449 -93.113258 13.653422 -25.855059 -8.206387 12.252709 41.424989 10.279047 -155.778694 38.996563 -148.287168 2.056625 10.782859 -2.607376 168.028406 -84.230921 -112.890278 -34.920232 -54.889718 116.468828 111.151262 46.425001 -97.467982 -62.904879 -45.830774 -19.96598 46.160674 28.703308 -13.029372 -169.567986 -65.842509 -109.956059 172.254285 -40.515815 -113.926341 158.523266 -0.192288 -142.143828 -29.983076 -60.063312 -7.101177 145.12019 0.267509 179.212946 153.328908 -19.0499 176.447944 145.171615 12.067908 141.823053 161.124503 52.748449 146.792261 -179.996836 75.748453 -0.003264 141.704435 7.502195 -0.0 -11.849274 72.683557 -71.479772 147.124212 15.682483 -76.950956 0.0 -0.001676 0.001256 30.064787 -25.730794 -81.520512 -86.508929 -31.514992 4.447946 32.044279 33.661726 94.047228
